Coordinates
version=1
nRows=27
nColumns=38
inDegrees=no

Units are S.I. units (second, meters, Newtons, ...)
If the header above contains a line with 'inDegrees', this indicates whether rotational values are in degrees (yes) or radians (no).

endheader
time	pelvis_tilt	pelvis_list	pelvis_rotation	pelvis_tx	pelvis_ty	pelvis_tz	hip_flexion_r	hip_adduction_r	hip_rotation_r	knee_angle_r	ankle_angle_r	subtalar_angle_r	mtp_angle_r	hip_flexion_l	hip_adduction_l	hip_rotation_l	knee_angle_l	ankle_angle_l	subtalar_angle_l	mtp_angle_l	lumbar_extension	lumbar_bending	lumbar_rotation	arm_flex_r	arm_add_r	arm_rot_r	elbow_flex_r	pro_sup_r	wrist_flex_r	wrist_dev_r	arm_flex_l	arm_add_l	arm_rot_l	elbow_flex_l	pro_sup_l	wrist_flex_l	wrist_dev_l
1.53333	0.0905584	-0.0739434	-0.0823873	0.718867	0.954918	-0.373369	-0.0390301	0.164682	0.137394	-0.707851	0.477938	-0.0493122	-0.0109204	0.537494	0.0136914	0.0801247	-2.15163	0.217743	0.0217284	-0.0340679	-0.413069	0.0722219	0.112575	-0.0970759	-0.413749	-0.106455	2.06205	1.42996	0.0394043	-0.0111488	-0.590374	-0.32454	-0.0352723	1.87204	1.71853	0.067436	-0.0572898
1.54167	0.0863812	-0.0583824	-0.0878737	0.720788	0.959552	-0.372428	-0.104117	0.138275	0.144062	-0.640723	0.436466	-0.0493122	-0.0109204	0.580871	0.0174546	0.0691532	-2.0957	0.222374	0.0217284	-0.0340679	-0.402224	0.0503983	0.138369	-0.085059	-0.399177	-0.0943478	2.08879	1.43261	0.0394043	-0.0111488	-0.611643	-0.334103	-0.0398422	1.89319	1.6981	0.067436	-0.0572898
1.55	0.0808653	-0.0427308	-0.0935726	0.723043	0.964373	-0.371396	-0.165956	0.111434	0.145769	-0.57318	0.380669	-0.0493122	-0.0109204	0.619742	0.0187516	0.0548628	-2.03092	0.225176	0.0217284	-0.0340679	-0.38934	0.0284338	0.163294	-0.0747432	-0.388037	-0.0778726	2.11539	1.43588	0.0394043	-0.0111488	-0.63385	-0.345735	-0.0453088	1.91621	1.67814	0.067436	-0.0572898
1.55833	0.0741534	-0.0274688	-0.0989331	0.725523	0.969248	-0.370355	-0.223276	0.0849046	0.140953	-0.508084	0.312235	-0.0493122	-0.0109204	0.653891	0.0186724	0.0391423	-1.95822	0.226457	0.0217284	-0.0340679	-0.374878	0.00704555	0.1866	-0.0654579	-0.380436	-0.0571321	2.14132	1.44074	0.0394043	-0.0111488	-0.656663	-0.358711	-0.052153	1.93976	1.66028	0.067436	-0.0572898
1.56667	0.0664669	-0.0129758	-0.103461	0.728119	0.974058	-0.369387	-0.275006	0.0593483	0.128629	-0.448419	0.234017	-0.0493122	-0.0109204	0.683078	0.0184197	0.023847	-1.87829	0.226615	0.0217284	-0.0340679	-0.35939	-0.0131955	0.207651	-0.0567576	-0.376264	-0.032711	2.16613	1.44824	0.0394043	-0.0111488	-0.679701	-0.372355	-0.0607167	1.96288	1.64566	0.067436	-0.0572898
1.575	0.0580469	0.000443563	-0.10677	0.73073	0.978694	-0.368566	-0.320293	0.0353706	0.108665	-0.397148	0.14989	-0.0493122	-0.0109204	0.707064	0.019078	0.0106153	-1.79158	0.226144	0.0217284	-0.0340679	-0.343443	-0.0318505	0.225987	-0.0484388	-0.375237	-0.00552341	2.18953	1.45921	0.0394043	-0.0111488	-0.702531	-0.386093	-0.0711737	1.98489	1.63493	0.067436	-0.0572898
1.58333	0.0491084	0.0125275	-0.108608	0.733269	0.983058	-0.367942	-0.358506	0.0135423	0.0819597	-0.357027	0.0643902	-0.0493122	-0.0109204	0.725635	0.0213942	0.000701242	-1.69838	0.225595	0.0217284	-0.0340679	-0.327554	-0.0485855	0.241353	-0.0405133	-0.376947	0.023377	2.21127	1.474	0.0394043	-0.0111488	-0.724674	-0.399477	-0.0835323	2.00537	1.62813	0.067436	-0.0572898
1.59167	0.0398246	0.0230282	-0.108871	0.735669	0.987066	-0.367536	-0.389248	-0.00559103	0.0504447	-0.330422	-0.0178038	-0.0493122	-0.0109204	0.738628	0.025625	-0.0051596	-1.59892	0.225493	0.0217284	-0.0340679	-0.312156	-0.0631422	0.253707	-0.0331551	-0.380895	0.0529654	2.23117	1.49231	0.0394043	-0.0111488	-0.74562	-0.412196	-0.0976655	2.02414	1.62475	0.067436	-0.0572898
1.6	0.0303462	0.0317023	-0.107588	0.737878	0.990651	-0.367329	-0.412375	-0.0215201	0.0168864	-0.319139	-0.0924157	-0.0493122	-0.0109204	0.745934	0.0314894	-0.00683341	-1.4935	0.226238	0.0217284	-0.0340679	-0.297609	-0.0753233	0.26318	-0.0266371	-0.386533	0.0823591	2.24897	1.51319	0.0394043	-0.0111488	-0.764851	-0.424077	-0.113353	2.04116	1.62386	0.067436	-0.0572898
1.60833	0.0208479	0.0383248	-0.104898	0.739861	0.993768	-0.367273	-0.428011	-0.0338037	-0.0155063	-0.324307	-0.156048	-0.0493122	-0.0109204	0.747508	0.0382526	-0.004787	-1.38264	0.228002	0.0217284	-0.0340679	-0.284231	-0.0849927	0.270022	-0.0212744	-0.393295	0.110869	2.2644	1.53511	0.0394043	-0.0111488	-0.781863	-0.43507	-0.130326	2.05656	1.62429	0.067436	-0.0572898
1.61667	0.0115853	0.0427246	-0.100995	0.741602	0.996381	-0.367302	-0.436583	-0.0421162	-0.0436182	-0.346289	-0.206516	-0.0493122	-0.0109204	0.743379	0.044924	1.77408e-05	-1.2673	0.230656	0.0217284	-0.0340679	-0.272355	-0.0920917	0.274518	-0.0173792	-0.400635	0.137993	2.27714	1.5562	0.0394043	-0.0111488	-0.796205	-0.445237	-0.148309	2.07052	1.62475	0.067436	-0.0572898
1.625	0.00293842	0.0448322	-0.0960749	0.743106	0.998465	-0.367351	-0.438828	-0.046305	-0.0649985	-0.38468	-0.243023	-0.0493122	-0.0109204	0.733678	0.0505118	0.00632347	-1.149	0.233748	0.0217284	-0.0340679	-0.262371	-0.0966606	0.276902	-0.015229	-0.408061	0.163382	2.28685	1.57446	0.0394043	-0.0111488	-0.807517	-0.454733	-0.167054	2.08334	1.624	0.067436	-0.0572898
1.63333	-0.00457153	0.0447246	-0.0902837	0.744394	0.999998	-0.367376	-0.435786	-0.0464506	-0.0783361	-0.438352	-0.266161	-0.0493122	-0.0109204	0.718679	0.0542609	0.0128287	-1.02992	0.236544	0.0217284	-0.0340679	-0.254743	-0.0988578	0.277289	-0.0150416	-0.415157	0.186781	2.29319	1.58813	0.0394043	-0.0111488	-0.815562	-0.463787	-0.186379	2.09537	1.62103	0.067436	-0.0572898
1.64167	-0.0103185	0.0426381	-0.0836847	0.745504	1.00098	-0.367359	-0.42874	-0.0429168	-0.0836972	-0.505578	-0.277722	-0.0493122	-0.0109204	0.698855	0.0558085	0.0184301	-0.912939	0.23811	0.0217284	-0.0340679	-0.249983	-0.0989657	0.275639	-0.0169567	-0.421606	0.20799	2.29589	1.59583	0.0394043	-0.0111488	-0.820249	-0.47268	-0.206174	2.10704	1.6151	0.067436	-0.0572898
1.65	-0.0136544	0.0389632	-0.0762532	0.746468	1.0014	-0.367316	-0.419097	-0.0363767	-0.0824739	-0.584213	-0.280327	-0.0493122	-0.0109204	0.674938	0.0552348	0.0224033	-0.801542	0.23745	0.0217284	-0.0340679	-0.248586	-0.097378	0.271758	-0.0210239	-0.427199	0.226832	2.29471	1.59683	0.0394043	-0.0111488	-0.821634	-0.481718	-0.226408	2.11877	1.60582	0.067436	-0.0572898
1.65833	-0.0140278	0.0342172	-0.067898	0.747315	1.00127	-0.367289	-0.408231	-0.0277969	-0.0770519	-0.671904	-0.276925	-0.0493122	-0.0109204	0.647953	0.0530169	0.0245007	-0.699659	0.233648	0.0217284	-0.0340679	-0.250934	-0.0945627	0.26535	-0.0272022	-0.431836	0.243139	2.28951	1.59115	0.0394043	-0.0111488	-0.81989	-0.491206	-0.2471	2.13095	1.59317	0.067436	-0.0572898
1.66667	-0.011101	0.028999	-0.0584971	0.74806	1.00061	-0.367339	-0.397298	-0.0183756	-0.0702966	-0.766304	-0.270252	-0.0493122	-0.0109204	0.61922	0.0499195	0.0249669	-0.611361	0.226015	0.0217284	-0.0340679	-0.257186	-0.0910094	0.256084	-0.0353762	-0.435507	0.256746	2.28024	1.57955	0.0394043	-0.0111488	-0.815254	-0.501422	-0.268275	2.14389	1.57746	0.067436	-0.0572898
1.675	-0.00484272	0.0239224	-0.0479393	0.74871	0.999434	-0.36753	-0.387067	-0.00944378	-0.0649994	-0.865261	-0.262408	-0.0493122	-0.0109204	0.59029	0.0468682	0.0244826	-0.540502	0.214247	0.0217284	-0.0340679	-0.267193	-0.0871817	0.243686	-0.0453831	-0.438273	0.267492	2.2669	1.56342	0.0394043	-0.0111488	-0.807947	-0.512597	-0.289909	2.15774	1.55927	0.067436	-0.0572898
1.68333	0.00442178	0.019557	-0.0361656	0.749257	0.99774	-0.367925	-0.377818	-0.00234346	-0.0634172	-0.96695	-0.254629	-0.0493122	-0.0109204	0.562813	0.0448248	0.0240532	-0.490314	0.198604	0.0217284	-0.0340679	-0.280474	-0.0834758	0.228008	-0.057043	-0.440231	0.275229	2.24955	1.54456	0.0394043	-0.0111488	-0.798081	-0.524897	-0.311859	2.17244	1.5394	0.067436	-0.0572898
1.69167	0.0160377	0.0163879	-0.0232006	0.749676	0.995509	-0.368578	-0.369311	0.0016952	-0.0669803	-1.06993	-0.247312	-0.0493122	-0.0109204	0.538339	0.0446771	0.0248427	-0.46301	0.180112	0.0217284	-0.0340679	-0.296263	-0.0801975	0.209086	-0.0701809	-0.441481	0.279822	2.22827	1.52498	0.0394043	-0.0111488	-0.785576	-0.538417	-0.333811	2.1877	1.51886	0.067436	-0.0572898
1.7	0.0291157	0.0147817	-0.00917713	0.749933	0.992709	-0.369526	-0.360844	0.0016592	-0.0761772	-1.17315	-0.240209	-0.0493122	-0.0109204	0.518081	0.0471485	0.0279536	-0.459437	0.160711	0.0217284	-0.0340679	-0.313621	-0.0775727	0.187155	-0.0846317	-0.442084	0.281165	2.20312	1.50669	0.0394043	-0.0111488	-0.770101	-0.553164	-0.355255	2.203	1.49878	0.067436	-0.0572898
1.70833	0.0426677	0.0149791	0.00564734	0.749981	0.989321	-0.370778	-0.351368	-0.00315718	-0.0905827	-1.27587	-0.232733	-0.0493122	-0.0109204	0.502696	0.0527215	0.0341778	-0.478825	0.143216	0.0217284	-0.0340679	-0.331585	-0.0757767	0.162639	-0.100225	-0.442036	0.279198	2.17415	1.49147	0.0394043	-0.0111488	-0.751066	-0.56905	-0.375496	2.21763	1.48041	0.067436	-0.0572898
1.71667	0.0557613	0.0171015	0.020887	0.749764	0.985384	-0.372307	-0.339635	-0.0130715	-0.108981	-1.37755	-0.224245	-0.0493122	-0.0109204	0.49211	0.0615759	0.0437786	-0.518663	0.130965	0.0217284	-0.0340679	-0.349312	-0.0749711	0.136107	-0.116759	-0.441246	0.273955	2.1413	1.48063	0.0394043	-0.0111488	-0.727683	-0.585871	-0.3937	2.23074	1.46499	0.067436	-0.0572898
1.725	0.0676527	0.0211519	0.0360397	0.749223	0.981029	-0.374038	-0.324347	-0.0279266	-0.129536	-1.47773	-0.214288	-0.0493122	-0.0109204	0.485442	0.0735396	0.0563793	-0.574789	0.127163	0.0217284	-0.0340679	-0.366182	-0.0753184	0.108226	-0.133985	-0.439545	0.265594	2.10451	1.47482	0.0394043	-0.0111488	-0.699073	-0.603296	-0.408986	2.24146	1.45371	0.067436	-0.0572898
1.73333	0.0778755	0.0269996	0.0505178	0.748329	0.976508	-0.375858	-0.304293	-0.0470162	-0.15	-1.57586	-0.202712	-0.0493122	-0.0109204	0.481061	0.0880662	0.0710188	-0.641702	0.13411	0.0217284	-0.0340679	-0.381834	-0.076962	0.0797084	-0.151608	-0.436709	0.254438	2.06372	1.474	0.0394043	-0.0111488	-0.664434	-0.620856	-0.420534	2.24895	1.44766	0.067436	-0.0572898
1.74167	0.0862878	0.0343471	0.0637043	0.747092	0.972124	-0.377626	-0.27846	-0.069064	-0.167969	-1.67123	-0.189695	-0.0493122	-0.0109204	0.476789	0.104266	0.086402	-0.713128	0.15261	0.0217284	-0.0340679	-0.396139	-0.0799691	0.051262	-0.169319	-0.432525	0.240988	2.01901	1.47743	0.0394043	-0.0111488	-0.623212	-0.637937	-0.427707	2.25255	1.44773	0.067436	-0.0572898
1.75	0.0929941	0.0427461	0.0750133	0.745553	0.968138	-0.379202	-0.24613	-0.0922863	-0.181181	-1.76282	-0.175663	-0.0493122	-0.0109204	0.470184	0.120984	0.101244	-0.782739	0.181804	0.0217284	-0.0340679	-0.409139	-0.0842344	0.023553	-0.186848	-0.426877	0.225903	1.97078	1.48371	0.0394043	-0.0111488	-0.575284	-0.653785	-0.430164	2.2519	1.45452	0.067436	-0.0572898
